<svg width="80" height="80" viewBox="0 0 80 80" xmlns="http://www.w3.org/2000/svg">
  <defs>
    <linearGradient id="titanGradient" x1="0%" y1="0%" x2="100%" y2="100%">
      <stop offset="0%" style="stop-color:#1e40af;stop-opacity:1" />
      <stop offset="100%" style="stop-color:#3b82f6;stop-opacity:1" />
    </linearGradient>
  </defs>
  
  <!-- Background -->
  <rect width="80" height="80" rx="12" fill="url(#titanGradient)"/>
  
  <!-- Main "T" Letter -->
  <g transform="translate(20, 15)">
    <!-- Top bar of T -->
    <rect x="0" y="0" width="40" height="8" fill="white" rx="2"/>
    <!-- Vertical bar of T -->
    <rect x="16" y="0" width="8" height="45" fill="white" rx="2"/>
  </g>
  
  <!-- Gear/Engineering element -->
  <g transform="translate(50, 45)" opacity="0.8">
    <circle cx="0" cy="0" r="12" fill="none" stroke="white" stroke-width="2"/>
    <!-- Gear teeth -->
    <circle cx="0" cy="-12" r="2" fill="white"/>
    <circle cx="8.5" cy="-8.5" r="2" fill="white"/>
    <circle cx="12" cy="0" r="2" fill="white"/>
    <circle cx="8.5" cy="8.5" r="2" fill="white"/>
    <circle cx="0" cy="12" r="2" fill="white"/>
    <circle cx="-8.5" cy="8.5" r="2" fill="white"/>
    <circle cx="-12" cy="0" r="2" fill="white"/>
    <circle cx="-8.5" cy="-8.5" r="2" fill="white"/>
    <!-- Center -->
    <circle cx="0" cy="0" r="4" fill="white"/>
  </g>
  
  <!-- Automation lines -->
  <g transform="translate(15, 50)" opacity="0.6">
    <line x1="0" y1="0" x2="15" y2="0" stroke="white" stroke-width="2"/>
    <line x1="0" y1="5" x2="10" y2="5" stroke="white" stroke-width="2"/>
    <line x1="0" y1="10" x2="12" y2="10" stroke="white" stroke-width="2"/>
  </g>
</svg>